<svg width="22" height="18" viewBox="0 0 22 18" fill="none" xmlns="http://www.w3.org/2000/svg">
<path d="M10.9993 3.50026C14.4735 3.50026 17.5718 5.45276 19.0844 8.54193C18.5435 9.66026 17.7827 10.6228 16.8752 11.4019L18.1677 12.6944C19.4419 11.5669 20.4502 10.1553 21.0827 8.54193C19.4969 4.51776 15.5827 1.66693 10.9993 1.66693C9.83518 1.66693 8.71685 1.85026 7.66268 2.18943L9.17518 3.70193C9.77102 3.58276 10.376 3.50026 10.9993 3.50026ZM10.0185 4.54526L11.916 6.44276C12.4385 6.67193 12.8602 7.09359 13.0893 7.61609L14.9869 9.51359C15.0602 9.20193 15.1152 8.87193 15.1152 8.53276C15.1243 6.25943 13.2727 4.41693 10.9993 4.41693C10.6602 4.41693 10.3393 4.46276 10.0185 4.54526ZM1.84185 1.54776L4.29852 4.00443C2.80435 5.17776 1.62185 6.73609 0.916016 8.54193C2.50185 12.5661 6.41602 15.4169 10.9993 15.4169C12.3927 15.4169 13.731 15.1511 14.9593 14.6653L18.0944 17.8003L19.3869 16.5078L3.13435 0.246094L1.84185 1.54776ZM8.71685 8.42276L11.1094 10.8153C11.0727 10.8244 11.036 10.8336 10.9993 10.8336C9.73435 10.8336 8.70768 9.80693 8.70768 8.54193C8.70768 8.49609 8.71685 8.46859 8.71685 8.42276ZM5.60018 5.30609L7.20435 6.91026C6.99352 7.41443 6.87435 7.96443 6.87435 8.54193C6.87435 10.8153 8.72602 12.6669 10.9993 12.6669C11.5768 12.6669 12.1269 12.5478 12.6219 12.3369L13.5202 13.2353C12.7135 13.4553 11.8702 13.5836 10.9993 13.5836C7.52518 13.5836 4.42685 11.6311 2.91435 8.54193C3.55602 7.23109 4.49102 6.14943 5.60018 5.30609Z" fill="#585858"/>
</svg>
