<?xml version="1.0" encoding="utf-8"?>
<!-- Generator: Adobe Illustrator 25.4.1, SVG Export Plug-In . SVG Version: 6.00 Build 0)  -->
<svg version="1.1" id="f802dc23-4a8e-4874-a4d7-c4d4c85c33af"
	 xmlns="http://www.w3.org/2000/svg" xmlns:xlink="http://www.w3.org/1999/xlink" x="0px" y="0px" viewBox="0 0 291.5 64"
	 style="enable-background:new 0 0 291.5 64;" xml:space="preserve">
<style type="text/css">
	.st0{fill:#4DC5F2;}
	.st1{fill:#17181A;}
	.st2{fill:#15181B;}
	.st3{fill:#FFFFFF;fill-opacity:0;}
</style>
<g>
	<g>
		<path class="st0" d="M102.2,20.7c6.2,0,11.2,5,11.2,11.2s-5,11.2-11.2,11.2l0,0c-2.6,0-5.2-1.1-6.9-3.1c0,0,0,0,0,0v11.5
			c0,0,0,0,0,0h-4.3l0,0V32C91,25.8,96,20.8,102.2,20.7C102.2,20.7,102.2,20.7,102.2,20.7z M109.1,33.3c0.8-3.8-1.6-7.5-5.4-8.3
			c-0.2,0-0.4-0.1-0.6-0.1c-3.9-0.4-7.4,2.5-7.7,6.4c0,0.2,0,0.3,0,0.5c-0.2,3.8,2.8,7.1,6.6,7.3c0.6,0,1.2,0,1.9-0.2
			C106.5,38.3,108.6,36.1,109.1,33.3z"/>
		<path class="st1" d="M115.6,31.7c0.1-5.9,4.8-10.7,10.7-11c4.8-0.2,9.2,2.7,10.9,7.2c0,0,0,0,0,0h-4.6l0,0c-1.3-1.9-3.4-3.1-5.7-3
			c-3.8,0-7,3.1-7,6.9c0,0.2,0,0.3,0,0.5c0.2,3.9,3.5,7,7.4,6.8c0.1,0,0.1,0,0.2,0c2.1-0.1,3.9-1.2,5.1-2.9c0,0,0,0,0,0h4.6l0,0
			c-1.6,4.3-5.8,7.1-10.4,7.1c-6.2,0-11.2-5-11.2-11.2C115.6,31.9,115.6,31.8,115.6,31.7z"/>
		<path class="st1" d="M158.8,31.4v11.4l0,0h-4.3l0,0V31.4c0-4.4-1.9-6.5-5.3-6.5c-3.4,0-5.3,2.1-5.3,6.4v11.5l0,0h-4.3l0,0V12.4
			l0,0h4.3l0,0V23l0,0c1.3-1.6,3.3-2.4,5.3-2.3C154.8,20.7,158.8,24.1,158.8,31.4z"/>
		<path class="st0" d="M173.7,44.8h5.1c0,0,0,0,0,0c1.2,1.6,3.1,2.6,5.1,2.6c3.7,0,6.9-2.4,6.9-6.1v-1c0,0,0,0,0,0
			c-1.8,1.8-4.3,2.9-6.9,2.9c-6.2,0-11.2-5-11.2-11.2s5-11.2,11.2-11.2c6.2,0,11.2,5,11.2,11.2v8.1c0,5.8-4.3,10.7-10.1,11.4
			C180.3,52,175.6,49.3,173.7,44.8C173.7,44.8,173.7,44.8,173.7,44.8z M190.8,33.3c0.7-4.6-2.4-8.4-6.8-8.4c-3.9,0-7.1,3.3-7,7.2
			s3.3,7.1,7.2,7c0.3,0,0.6,0,0.9-0.1C188,38.5,190.3,36.3,190.8,33.3z"/>
		<path class="st1" d="M231.6,32c0,6.2-5,11.2-11.2,11.2c-6.2,0-11.2-5-11.2-11.2c0-6.2,5-11.2,11.2-11.2
			C226.5,20.7,231.6,25.7,231.6,32C231.6,31.9,231.6,31.9,231.6,32z M213.4,32c-0.1,3.8,3,7,6.8,7.1c0.1,0,0.1,0,0.2,0
			c3.8,0,6.9-3.1,6.9-6.9c0-0.1,0-0.2,0-0.2c0.1-3.8-2.8-7-6.6-7.1c-0.1,0-0.2,0-0.3,0c-3.8,0-7,3-7,6.9
			C213.4,31.8,213.4,31.9,213.4,32L213.4,32z"/>
		<path class="st1" d="M234,12.4h4.3l0,0v11.5c0,0,0,0,0,0c0,0,0,0,0,0c1.7-2,4.2-3.2,6.9-3.1c6.2,0,11.2,5,11.3,11.2
			c0,6.2-5,11.2-11.2,11.3c-6.2,0-11.2-5-11.3-11.2c0,0,0,0,0,0L234,12.4C234,12.4,234,12.4,234,12.4z M238.2,32
			c0.1,3.8,3.2,6.9,7.1,6.8c3.8-0.1,6.9-3.2,6.8-7.1c-0.1-3.8-3.2-6.8-7-6.8c-3.8,0-6.9,3.1-7,6.9C238.2,31.8,238.2,31.9,238.2,32z"
			/>
		<path class="st1" d="M258.6,32c0-6.2,5-11.2,11.2-11.2c6.2,0,11.2,5,11.2,11.2c0,0,0,0,0,0v10.9c0,0,0,0,0,0h-4.2c0,0,0,0,0,0
			v-3.4c0,0,0,0,0,0c0,0,0,0,0,0c-1.1,2.1-3.8,3.8-6.9,3.8C263.6,43.2,258.6,38.2,258.6,32C258.6,32,258.6,32,258.6,32z M276.6,33.3
			c0.7-4.6-2.4-8.4-6.8-8.4c-3.9,0-7.1,3.3-7,7.2s3.3,7.1,7.2,7c0.3,0,0.6,0,0.9-0.1C273.8,38.5,276.2,36.3,276.6,33.3z"/>
		<path class="st2" d="M288.2,37.2c0,0.4,0.1,0.9,0.3,1.2c0.2,0.3,0.6,0.4,1,0.4h2c0,0,0,0,0,0v4c0,0,0,0,0,0H289
			c-1.4,0.1-2.8-0.5-3.7-1.5c-0.9-1.2-1.4-2.7-1.3-4.2V12.6c0,0,0,0,0,0h4.2c0,0,0,0,0,0L288.2,37.2z"/>
		<path class="st2" d="M203.3,37.2c0,0.4,0.1,0.9,0.3,1.2c0.2,0.3,0.6,0.4,1,0.4h2c0,0,0,0,0,0v4c0,0,0,0,0,0h-2.5
			c-1.4,0.1-2.8-0.5-3.7-1.5c-0.9-1.2-1.4-2.7-1.3-4.2V12.6c0,0,0,0,0,0h4.2c0,0,0,0,0,0L203.3,37.2z"/>
	</g>
	<g>
		<path class="st1" d="M32,0v4.3c15.3,0,27.7,12.4,27.7,27.7S47.3,59.7,32,59.7V64c17.7,0,32-14.3,32-32S49.7,0,32,0L32,0z"/>
		<path class="st0" d="M4.3,32C4.3,16.7,16.7,4.3,32,4.3V0C14.3,0,0,14.3,0,32c0,17.7,14.3,32,32,32v-4.3C16.7,59.7,4.3,47.3,4.3,32
			z"/>
		<path class="st0" d="M25.5,29.2c1.5,1.2,2.8,2.6,3.8,4.1c0.5,0.7,0.9,1.6,1,2.5c0.3-1.1,0.3-2.4-0.1-3.5c-0.8-3-2.8-5.5-5.5-7.1
			c-3.7-1.6-7.9-1.9-11.8-0.8c0,3.6,0.8,7.1,2.4,10.3c1.8,3.5,5.3,5.9,9.2,6.3c2.2,0.2,4.3,0.1,6.4-0.3l0,0l0,0
			c-0.2-0.1-6.9-1.7-8.9-3.5c-4-2.9-4.7-9.5-4.7-9.5S23.1,27.3,25.5,29.2z"/>
		<path class="st1" d="M47.3,27.9c0,0.3-0.9,7.5-4.6,11.6s-13.8,5.7-13.8,5.7s11.9,2.3,18-5.2c4.9-6.1,4.9-15.5,4.9-15.5
			c0,0,0,0,0,0c0,0-9.3-2.4-15.4,1.4c-8,5.8-6.5,12.8-6.5,12.8s0.3-4.4,6.2-9C39.8,27,47.1,27.9,47.3,27.9z"/>
		<path class="st0" d="M30.9,40.8C30.9,40.8,30.9,40.8,30.9,40.8C30.9,40.8,30.9,40.8,30.9,40.8c0.5-2.1,1.8-3.9,3.5-5.2
			c1.7-1.3,3.8-1.9,5.9-1.8c0,0,0,0,0,0c0,0,0,0,0,0c-0.5,2.1-1.7,3.9-3.5,5.1C35.2,40.3,33.1,41,30.9,40.8z"/>
	</g>
</g>
<rect class="st3" width="291.5" height="64"/>
</svg>
