<svg width="20" height="20" viewBox="0 0 20 20" fill="none" xmlns="http://www.w3.org/2000/svg">
<path d="M15 0C15.5523 0 16 0.44772 16 1V5H19C19.5523 5 20 5.44772 20 6V16C20 16.5523 19.5523 17 19 17H16V19C16 19.5523 15.5523 20 15 20H5C4.44772 20 4 19.5523 4 19V17H1C0.44772 17 0 16.5523 0 16V6C0 5.44772 0.44772 5 1 5H4V1C4 0.44772 4.44772 0 5 0H15ZM14 15H6V18H14V15ZM18 7H2V15H4V14C4 13.4477 4.44772 13 5 13H15C15.5523 13 16 13.4477 16 14V15H18V7ZM6 8V10H3V8H6ZM14 2H6V5H14V2Z" fill="white"/>
</svg>
