<svg width="24" height="18" viewBox="0 0 24 18" fill="none" xmlns="http://www.w3.org/2000/svg">
<path d="M23.4619 2.31599C22.7128 2.68442 21.7765 2.86863 20.8401 3.05284C21.7765 2.50021 22.5256 1.57915 22.9001 0.47389C21.9637 1.02652 21.0274 1.39494 19.9037 1.57915C18.9673 0.6581 17.8437 0.105469 16.5327 0.105469C13.5363 0.105469 11.289 2.86863 12.0381 5.63178C8.10528 5.44757 4.7343 3.60547 2.48699 0.842311C1.36333 2.86863 1.92516 5.63179 3.9852 6.92126C3.23609 6.92126 2.48698 6.73705 1.92515 6.36863C1.92515 8.39494 3.42336 10.4213 5.67068 10.9739C5.10885 11.1581 4.35975 11.1581 3.61064 10.9739C4.17247 12.816 5.85796 14.1055 7.918 14.1055C6.04523 15.5792 3.61064 16.316 0.98877 15.9476C3.04881 17.237 5.48341 17.9739 8.10528 17.9739C16.72 17.9739 21.5892 10.7897 21.2146 4.52652C21.9637 3.97389 22.7128 3.23705 23.4619 2.31599Z" fill="white"/>
</svg>
