<svg width="149" height="148" viewBox="0 0 149 148" fill="none" xmlns="http://www.w3.org/2000/svg">
<circle cx="74.998" cy="74.001" r="72" stroke="#00B4CD" stroke-width="4"/>
<path d="M62.2914 110.968C59.1787 110.968 56.4349 110.004 54.0599 108.075C51.6848 106.146 50.0791 103.699 49.2426 100.733C48.3149 102.32 47.1249 103.553 45.6724 104.432C44.2201 105.312 42.5408 105.752 40.6347 105.752C37.7654 105.752 35.3663 104.748 33.4374 102.74C31.5084 100.732 30.5439 98.3318 30.5439 95.5394C30.5439 92.6143 31.4856 90.2316 33.3689 88.3914C35.2522 86.5512 37.6539 85.6362 40.5739 85.6463C39.2609 84.379 38.2242 82.8531 37.4638 81.0687C36.7033 79.2842 36.3231 77.4643 36.3231 75.6088C36.3231 73.3004 36.9023 71.1365 38.0606 69.1173C39.219 67.0981 40.8704 65.4675 43.0147 64.2254C43.2947 64.8566 43.6245 65.5454 44.0042 66.2918C44.3838 67.0382 44.7611 67.6979 45.1363 68.2708C43.7675 69.1782 42.7105 70.2981 41.9653 71.6305C41.2201 72.963 40.8475 74.3423 40.8475 75.7685C40.8475 79.8748 42.4266 82.4957 45.5849 83.6313C48.7432 84.7669 51.8939 85.6439 55.0369 86.2623L55.8202 87.7223C55.0547 89.9528 54.4375 91.8095 53.9685 93.2924C53.4996 94.7752 53.2652 96.1426 53.2652 97.3948C53.2652 99.8028 54.1658 101.913 55.9671 103.725C57.7683 105.538 59.8967 106.444 62.3522 106.444C65.1302 106.444 67.4242 105.345 69.234 103.147C71.0439 100.95 72.5115 98.3302 73.6368 95.2885C74.7622 92.2469 75.6342 89.1406 76.2527 85.9696C76.8712 82.7987 77.3908 80.2728 77.8115 78.392L82.1763 79.6315C81.6339 82.3133 80.9799 85.45 80.2144 89.0417C79.4489 92.6333 78.3565 96.0501 76.937 99.292C75.5176 102.534 73.647 105.291 71.3252 107.562C69.0034 109.833 65.9921 110.968 62.2914 110.968ZM40.6955 101.265C42.2823 101.265 43.6232 100.718 44.7182 99.6229C45.8132 98.5278 46.3608 97.187 46.3608 95.6002C46.3608 94.0388 45.8132 92.7043 44.7182 91.5966C43.6232 90.4889 42.2823 89.935 40.6955 89.935C39.1341 89.935 37.7996 90.4889 36.6919 91.5966C35.5842 92.7043 35.0304 94.0388 35.0304 95.6002C35.0304 97.187 35.5842 98.5278 36.6919 99.6229C37.7996 100.718 39.1341 101.265 40.6955 101.265ZM67.9184 83.0153C65.1048 80.506 62.5422 78.1715 60.2306 76.0119C57.9189 73.8523 55.9247 71.7295 54.2481 69.6435C52.5714 67.5574 51.2775 65.4979 50.3662 63.4651C49.4549 61.4322 48.9992 59.2802 48.9992 57.0091C48.9992 53.2317 50.3133 50.0353 52.9415 47.4198C55.5697 44.8042 58.7598 43.4964 62.5118 43.4964C63.2317 43.4964 63.9123 43.5256 64.5536 43.5839C65.1949 43.6422 65.8045 43.7627 66.3824 43.9451C65.84 42.9769 65.4433 42.1141 65.1924 41.3568C64.9414 40.5995 64.8159 39.8425 64.8159 39.086C64.8159 36.2531 65.7992 33.853 67.7656 31.8856C69.7322 29.9182 72.1313 28.9346 74.963 28.9346C77.7948 28.9346 80.1954 29.9182 82.1648 31.8856C84.1343 33.853 85.1191 36.2531 85.1191 39.086C85.1191 39.811 85.0037 40.56 84.7731 41.3331C84.5424 42.1062 84.1356 42.9769 83.5526 43.9451C84.1305 43.7627 84.7401 43.6422 85.3814 43.5839C86.0227 43.5256 86.7033 43.4964 87.4232 43.4964C90.7487 43.4964 93.599 44.5027 95.974 46.5153C98.349 48.5279 99.8356 51.0727 100.434 54.1498C99.743 54.1093 98.9835 54.0991 98.1554 54.1194C97.3273 54.1397 96.566 54.203 95.8715 54.3095C95.3645 52.4338 94.3607 50.9104 92.8602 49.7394C91.3596 48.5684 89.5529 47.9829 87.44 47.9829C84.965 47.9829 82.9937 48.6393 81.5261 49.9523C80.0585 51.2653 78.1258 53.3185 75.7279 56.1118H74.1083C71.6698 53.212 69.7168 51.1323 68.2492 49.8725C66.7816 48.6127 64.8691 47.9829 62.5118 47.9829C59.9303 47.9829 57.7806 48.8419 56.0627 50.5599C54.3446 52.2779 53.4856 54.4276 53.4856 57.0091C53.4856 58.5735 53.895 60.1775 54.7137 61.821C55.5324 63.4646 56.7053 65.2191 58.2325 67.0846C59.7597 68.9502 61.6139 70.921 63.795 72.9969C65.9761 75.0729 68.4253 77.3376 71.1425 79.7913L67.9184 83.0153ZM74.9675 44.7513C76.5542 44.7513 77.8951 44.2038 78.9902 43.1087C80.0852 42.0137 80.6326 40.6729 80.6326 39.086C80.6326 37.4993 80.0852 36.1584 78.9902 35.0634C77.8951 33.9684 76.5542 33.4209 74.9675 33.4209C73.3807 33.4209 72.0399 33.9684 70.9448 35.0634C69.8498 36.1584 69.3023 37.4993 69.3023 39.086C69.3023 40.6729 69.8498 42.0137 70.9448 43.1087C72.0399 44.2038 73.3807 44.7513 74.9675 44.7513ZM87.4687 111.067C86.2747 111.067 85.0943 110.891 83.9275 110.54C82.7606 110.189 81.6344 109.67 80.549 108.984C80.9223 108.392 81.3146 107.716 81.726 106.956C82.1373 106.196 82.4725 105.49 82.7313 104.839C83.5336 105.379 84.346 105.788 85.1685 106.065C85.991 106.343 86.8236 106.482 87.6665 106.482C90.1505 106.482 92.2758 105.577 94.0426 103.767C95.8093 101.957 96.6927 99.833 96.6927 97.3948C96.6927 96.1098 96.4417 94.7302 95.9399 93.2563C95.438 91.7823 94.8372 89.9504 94.1377 87.7603L94.9588 86.3384C98.1932 85.7604 101.367 84.8973 104.479 83.7491C107.592 82.6009 109.148 79.9736 109.148 75.8673C109.148 72.7648 108.043 70.4481 105.833 68.9171C103.623 67.3861 101.131 66.6206 98.358 66.6206C95.6453 66.6206 92.4438 67.1098 88.7535 68.0882C85.0631 69.0666 80.8024 70.3542 75.9713 71.9511L74.8306 67.5864C79.5604 66.0403 83.8434 64.7323 87.6795 63.6627C91.5156 62.593 94.999 62.0582 98.1298 62.0582C102.17 62.0582 105.764 63.2571 108.912 65.655C112.061 68.0528 113.635 71.4367 113.635 75.8066C113.635 77.6511 113.267 79.4392 112.532 81.1708C111.797 82.9023 110.76 84.4145 109.422 85.7072C112.301 85.7224 114.693 86.6539 116.596 88.5017C118.5 90.3495 119.452 92.7157 119.452 95.6002C119.452 98.3884 118.487 100.794 116.558 102.817C114.63 104.839 112.23 105.851 109.361 105.851C107.496 105.851 105.816 105.411 104.323 104.531C102.83 103.652 101.64 102.406 100.753 100.794C99.8509 103.759 98.2058 106.213 95.8181 108.155C93.4304 110.096 90.6472 111.067 87.4687 111.067ZM109.399 101.364C110.92 101.364 112.228 100.81 113.323 99.7027C114.418 98.595 114.965 97.2605 114.965 95.6991C114.965 94.1782 114.401 92.8373 113.274 91.6764C112.146 90.5155 110.821 89.935 109.3 89.935C107.779 89.935 106.455 90.499 105.327 91.6269C104.199 92.7549 103.635 94.0794 103.635 95.6002C103.635 97.121 104.216 98.4619 105.376 99.6229C106.537 100.784 107.878 101.364 109.399 101.364Z" fill="#00B4CD"/>
</svg>
