<svg width="148" height="148" viewBox="0 0 148 148" fill="none" xmlns="http://www.w3.org/2000/svg">
<circle cx="74" cy="74" r="72" stroke="#00B4CD" stroke-width="4"/>
<path d="M65.515 75.2987V64.6886H76.1251V75.2987H65.515ZM68.2727 72.5411H73.3674V67.4463H68.2727V72.5411ZM64.1548 90.0735V85.7734H58.546C57.5928 85.7734 56.7703 85.4274 56.0783 84.7354C55.3863 84.0435 55.0403 83.2209 55.0403 82.2678V76.6589H50.7402V73.9013H55.0403V65.8758H50.7402V63.1181H55.0403V57.5093C55.0403 56.5561 55.3863 55.7336 56.0783 55.0416C56.7703 54.3496 57.5928 54.0036 58.546 54.0036H64.1548V49.8765H66.9125V54.0036H74.938V49.8765H77.6956V54.0036H83.3045C84.2576 54.0036 85.0802 54.3496 85.7721 55.0416C86.4641 55.7336 86.8101 56.5561 86.8101 57.5093V63.1181H90.9373V65.8758H86.8101V73.9013H90.9373V76.6589H86.8101V82.2678C86.8101 83.2209 86.4641 84.0435 85.7721 84.7354C85.0802 85.4274 84.2576 85.7734 83.3045 85.7734H77.6956V90.0735H74.938V85.7734H66.9125V90.0735H64.1548ZM83.3045 83.0157C83.4915 83.0157 83.6629 82.9378 83.8187 82.782C83.9745 82.6262 84.0524 82.4548 84.0524 82.2678V57.5093C84.0524 57.3223 83.9745 57.1509 83.8187 56.995C83.6629 56.8392 83.4915 56.7613 83.3045 56.7613H58.546C58.359 56.7613 58.1876 56.8392 58.0317 56.995C57.8759 57.1509 57.798 57.3223 57.798 57.5093V82.2678C57.798 82.4548 57.8759 82.6262 58.0317 82.782C58.1876 82.9378 58.359 83.0157 58.546 83.0157H83.3045Z" fill="#00B4CD"/>
<path d="M48.3678 116.69V98.8481C43.8616 94.7372 40.3634 90.1169 37.8731 84.9874C35.3828 79.8578 34.1377 74.5922 34.1377 69.1907C34.1377 58.6681 37.827 49.724 45.2055 42.3582C52.5842 34.9925 61.5439 31.3096 72.0848 31.3096C80.6289 31.3096 88.3506 33.9108 95.2498 39.1133C102.149 44.3158 106.623 51.0341 108.673 59.2681L113.764 79.4567C114 80.5076 113.808 81.442 113.188 82.2599C112.568 83.0778 111.695 83.4868 110.57 83.4868H100.545V100.636C100.545 102.395 99.8902 103.929 98.5805 105.239C97.2707 106.549 95.7364 107.204 93.9774 107.204H81.5715V116.69H77.9228V103.555H93.9774C94.8287 103.555 95.5281 103.281 96.0754 102.734C96.6227 102.187 96.8963 101.487 96.8963 100.636V79.8381H110.05L105.17 60.0436C103.333 52.5575 99.3045 46.5051 93.0834 41.8864C86.8623 37.2677 79.8627 34.9583 72.0848 34.9583C62.5555 34.9583 54.4567 38.2623 47.7886 44.8703C41.1205 51.4784 37.7864 59.5403 37.7864 69.0561C37.7864 74.0115 38.7966 78.6826 40.8169 83.0695C42.8372 87.4563 45.6674 91.3355 49.3074 94.7069L52.0166 97.2882V116.69H48.3678Z" fill="#00B4CD"/>
</svg>
