<svg width="148" height="148" viewBox="0 0 148 148" fill="none" xmlns="http://www.w3.org/2000/svg">
<circle cx="74" cy="74" r="72" stroke="#00B4CD" stroke-width="4"/>
<path fill-rule="evenodd" clip-rule="evenodd" d="M41.9995 115.035C44.0684 117.101 46.5699 118.134 49.5039 118.134C52.438 118.134 54.9319 117.103 56.9857 115.043C59.0395 112.983 60.0663 110.481 60.0663 107.537C60.0663 106.254 59.8825 105.108 59.5147 104.1C59.1469 103.092 58.5902 102.099 57.8444 101.122L67.8125 88.4995C69.6644 89.559 71.7133 90.0888 73.9592 90.0888C76.2051 90.0888 78.2606 89.559 80.1258 88.4995L90.1557 101.021C89.3863 102.021 88.8236 103.036 88.4676 104.066C88.1117 105.097 87.9337 106.254 87.9337 107.537C87.9337 110.481 88.9621 112.983 91.019 115.043C93.0758 117.103 95.5712 118.134 98.5052 118.134C101.439 118.134 103.939 117.099 106.005 115.03C108.071 112.961 109.104 110.46 109.104 107.526C109.104 104.592 108.081 102.098 106.036 100.044C103.991 97.9901 101.464 96.9632 98.4554 96.9632C97.613 96.9632 96.8151 97.0532 96.0615 97.2332C95.308 97.4132 94.5764 97.6833 93.8666 98.0433L83.8368 85.5601C85.0969 84.1765 86.0124 82.5885 86.5833 80.7959C87.1543 79.0035 87.2726 77.1403 86.9383 75.2064L101.427 70.3612C102.312 71.9557 103.551 73.221 105.144 74.1571C106.737 75.0932 108.546 75.5612 110.57 75.5612C113.483 75.5612 115.973 74.5332 118.039 72.4771C120.106 70.421 121.14 67.9222 121.14 64.9806C121.14 62.039 120.105 59.5387 118.036 57.4796C115.967 55.4205 113.466 54.3909 110.532 54.3909C107.598 54.3909 105.104 55.42 103.05 57.4783C100.996 59.5365 99.9694 62.0358 99.9694 64.9761V65.4081C99.9694 65.574 99.9822 65.6923 100.008 65.763L85.5573 70.7857C84.508 68.9289 83.2105 67.4643 81.6649 66.392C80.1194 65.3195 78.3616 64.575 76.3917 64.1584V48.751C78.9326 48.1441 80.9334 46.8352 82.3941 44.8241C83.8548 42.813 84.5852 40.6887 84.5852 38.4514C84.5852 35.5282 83.5571 33.0332 81.5011 30.9664C79.445 28.8996 76.9461 27.8662 74.0045 27.8662C71.063 27.8662 68.5626 28.9007 66.5035 30.9696C64.4444 33.0385 63.4149 35.5271 63.4149 38.4354C63.4149 40.6834 64.1349 42.813 65.5751 44.8241C67.0152 46.8352 69.0263 48.1441 71.6082 48.751V64.1584C69.6383 64.575 67.8909 65.3195 66.3658 66.392C64.8408 67.4643 63.5665 68.9289 62.543 70.7857L47.9921 65.763C47.9921 65.6859 47.9985 65.5676 48.0113 65.4081C48.0242 65.2487 48.0306 65.1047 48.0306 64.9761C48.0306 62.0358 47.0022 59.5365 44.9453 57.4783C42.8885 55.42 40.3931 54.3909 37.4591 54.3909C34.525 54.3909 32.0251 55.4189 29.9592 57.475C27.8933 59.5311 26.8604 62.03 26.8604 64.9716C26.8604 67.9131 27.8938 70.4135 29.9606 72.4726C32.0274 74.5317 34.5174 75.5612 37.4305 75.5612C39.4626 75.5612 41.2629 75.0996 42.8313 74.1763C44.3997 73.2531 45.6467 71.9814 46.5726 70.3612L61.0618 75.2064C60.7532 77.1403 60.8882 78.9971 61.4669 80.7767C62.0455 82.5563 62.9443 84.1636 64.1633 85.5987L54.1335 98.0433C53.3899 97.6833 52.6498 97.4132 51.9132 97.2332C51.1765 97.0532 50.3724 96.9632 49.5008 96.9632C46.555 96.9632 44.0512 97.9917 41.9892 100.048C39.9271 102.105 38.8961 104.601 38.8961 107.535C38.8961 110.469 39.9306 112.969 41.9995 115.035ZM41.7314 69.2515C40.5664 70.4233 39.1412 71.0092 37.4558 71.0092C35.7705 71.0092 34.3419 70.4268 33.17 69.2618C31.9982 68.0968 31.4122 66.6716 31.4122 64.9863C31.4122 63.3009 31.9947 61.8723 33.1597 60.7004C34.3248 59.5286 35.75 58.9427 37.4353 58.9427C39.1206 58.9427 40.5492 59.5252 41.7211 60.6902C42.893 61.8552 43.4789 63.2803 43.4789 64.9656C43.4789 66.651 42.8964 68.0797 41.7314 69.2515ZM53.7671 111.824C52.602 112.996 51.1768 113.582 49.4915 113.582C47.8062 113.582 46.3776 112.999 45.2057 111.834C44.0338 110.669 43.4479 109.244 43.4479 107.559C43.4479 105.873 44.0304 104.445 45.1954 103.273C46.3604 102.101 47.7856 101.515 49.4709 101.515C51.1563 101.515 52.5849 102.097 53.7567 103.262C54.9286 104.427 55.5146 105.853 55.5146 107.538C55.5146 109.223 54.9321 110.652 53.7671 111.824ZM78.2858 42.7267C77.1208 43.8986 75.6957 44.4846 74.0104 44.4846C72.325 44.4846 70.8963 43.9021 69.7245 42.7371C68.5527 41.572 67.9667 40.1468 67.9667 38.4615C67.9667 36.7762 68.5492 35.3476 69.7142 34.1757C70.8792 33.0038 72.3044 32.4179 73.9897 32.4179C75.6751 32.4179 77.1037 33.0004 78.2756 34.1654C79.4474 35.3304 80.0333 36.7556 80.0333 38.4409C80.0333 40.1263 79.4508 41.5549 78.2858 42.7267ZM102.805 111.824C101.64 112.996 100.214 113.582 98.5291 113.582C96.8438 113.582 95.4152 112.999 94.2433 111.834C93.0714 110.669 92.4855 109.244 92.4855 107.559C92.4855 105.873 93.068 104.445 94.233 103.273C95.398 102.101 96.8232 101.515 98.5085 101.515C100.194 101.515 101.622 102.098 102.794 103.263C103.966 104.428 104.552 105.853 104.552 107.538C104.552 109.223 103.97 110.652 102.805 111.824ZM114.84 69.2516C113.675 70.4234 112.25 71.0093 110.565 71.0093C108.879 71.0093 107.451 70.4269 106.279 69.2619C105.107 68.0969 104.521 66.6717 104.521 64.9864C104.521 63.301 105.104 61.8724 106.269 60.7005C107.434 59.5287 108.859 58.9428 110.544 58.9428C112.23 58.9428 113.658 59.5253 114.83 60.6903C116.002 61.8553 116.588 63.2804 116.588 64.9657C116.588 66.6511 116.005 68.0798 114.84 69.2516ZM72.1905 85.2031H75.81V79.0298H81.6035V75.2552H75.81V69.0819H72.1905V75.2552H66.3969V79.0298H72.1905V85.2031Z" fill="#00B4CD"/>
</svg>
