<?xml version="1.0" encoding="UTF-8"?><svg id="Layer_2" xmlns="http://www.w3.org/2000/svg" viewBox="0 0 639 639"><defs><style>.cls-1{fill:#fff;}</style></defs><g id="Layer_1-2"><path class="cls-1" d="m319.5,0C143.32648,0,0,143.3257,0,319.5s143.32648,319.5,319.5,319.5,319.5-143.3257,319.5-319.5S495.6743,0,319.5,0Zm0,596.04223c-152.48403,0-276.54145-124.0543-276.54145-276.54223S167.01597,42.95777,319.5,42.95777s276.54223,124.0543,276.54223,276.54223-124.05742,276.54223-276.54223,276.54223Z"/><path class="cls-1" d="m516.23197,245.05868s-92.5458-24.17779-154.10025,14.16065c-33.23393,24.0249-50.00066,50.01704-58.27209,72.24007-.41342-2.7847-.98128-5.74882-1.79251-8.92822-5.62869-22.05299-23.83926-54.69565-54.7721-70.53025-58.51936-26.88761-118.02467-7.50388-118.02467-7.50388,0,0-1.0975,56.78925,23.97966,103.25092,25.07716,46.4601,62.73074,59.09658,92.02006,62.57863,28.59509,3.39781,59.89065-1.89391,63.93744-2.61466,12.97501,1.13104,35.86575-1.20437,59.07006-18.11072,23.29323-16.97188,31.95858-38.60053,34.59586-51.36649.01014-.04992-.02964-.10452-.08034-.1092-12.97969-1.20437-36.56231,1.57566-59.22684,18.10136-21.14347,15.73319-31.79009,38.35716-34.53814,51.12468-6.9329-1.92355-69.27128-17.92663-88.65423-34.43361-39.60911-29.38526-46.61221-94.41787-46.61221-94.41787,0,0,57.15743-5.67081,81.01774,13.2605,21.38528,19.06236,30.30726,28.60055,38.2152,40.89694,3.08268,4.79406,5.16535,9.0733,6.58813,12.68172-5.91808,24.30883-2.1014,41.41644-2.1014,41.41644,0,0,2.73166-43.91097,61.72996-89.96702,38.53969-27.44299,111.44435-18.02024,112.8328-17.84863-.40562,2.57722-9.10528,74.82977-46.05293,115.68615-36.94765,40.85481-137.61043,57.22607-137.61043,57.22607,0,0,119.12295,22.63801,179.59785-51.94371,48.42578-60.55523,48.425-154.62677,48.425-154.62677.00624-.10608-.06708-.20125-.17161-.22309Z"/></g></svg>