<svg width="23" height="17" viewBox="0 0 23 17" fill="none" xmlns="http://www.w3.org/2000/svg">
<path d="M22.6253 3.26254C22.438 2.34149 21.6889 1.60465 20.5653 1.23623C18.8798 0.683594 11.7632 0.683594 11.7632 0.683594C11.7632 0.683594 4.64671 0.683594 2.96122 1.23623C2.02484 1.42044 1.27575 2.34149 0.901192 3.26254C0.339361 4.92044 0.339355 8.60465 0.339355 8.60465C0.339355 8.60465 0.339361 12.2889 0.901192 13.9468C1.08847 14.8678 1.83756 15.6046 2.96122 15.9731C4.64671 16.5257 11.7632 16.5257 11.7632 16.5257C11.7632 16.5257 18.8798 16.5257 20.5653 15.9731C21.5016 15.7889 22.2507 14.8678 22.6253 13.9468C23.1871 12.2889 23.1871 8.60465 23.1871 8.60465C23.1871 8.60465 22.9998 4.92044 22.6253 3.26254ZM9.51591 11.9204V5.28886L15.3215 8.60465L9.51591 11.9204Z" fill="white"/>
</svg>
