<svg xmlns="http://www.w3.org/2000/svg" width="300" height="120" viewBox="0 0 300 120">
  <g id="client-5" transform="translate(-60 -420)">
    <rect id="Rectangle_5" data-name="Rectangle 5" width="300" height="120" transform="translate(60 420)" fill="none"/>
    <g id="Group_1" data-name="Group 1" transform="translate(-151 196)">
      <path id="Path_1" data-name="Path 1" d="M309.924,202.776c-2.964,7.437-.8,18.574,3.823,24.711,1.989-3.712,5.893-6.993,9.443-9.366,11.205-7.5,14.755-18.51,9.294-24.587C327.711,188.226,315.031,189.954,309.924,202.776Z" transform="translate(16.582 56.281)" fill="#919191"/>
      <path id="Path_2" data-name="Path 2" d="M258,209.454c-5.034,7.7.821,17,10.529,21.949,10.354,5.278,14.858,7.809,18.424,11.261,4.551-14.584.2-23.522-4.131-28.924-8.494-10.654-20.991-10.175-24.823-4.285Z" transform="translate(46.576 47.93)" fill="#919191"/>
      <path id="Path_3" data-name="Path 3" d="M312.814,221.068a25.818,25.818,0,0,0-2.75-2.938c-.047.115-.1.227-.15.346-2.964,7.437-.8,18.574,3.823,24.711a22.539,22.539,0,0,1,5.111-6.069,26.649,26.649,0,0,0-6.035-16.051Z" transform="translate(16.587 40.593)" fill="#7b7979"/>
      <path id="Path_4" data-name="Path 4" d="M90.4,274.315a21.811,21.811,0,0,0-12.142,3.558,22.825,22.825,0,0,0-4.576,3.969,24.376,24.376,0,0,0-3.421,5.017,26.132,26.132,0,0,0-2.878,11.924,15.555,15.555,0,0,0,1.061,5.906,11.628,11.628,0,0,0,3.049,4.345,13.425,13.425,0,0,0,4.918,2.7,22.24,22.24,0,0,0,6.676.928,19.053,19.053,0,0,0,5.2-.646,13.019,13.019,0,0,0,3.768-1.689,7.643,7.643,0,0,0,2.271-2.305,4.846,4.846,0,0,0,.757-2.493,1.745,1.745,0,0,0-.257-.932,2.8,2.8,0,0,0-.321-.428,14.928,14.928,0,0,1-1.381,1.531,10.987,10.987,0,0,1-2.087,1.57,11.253,11.253,0,0,1-2.694,1.125,12.536,12.536,0,0,1-3.374.428c-3.092,0-5.461-.855-7.04-2.566a10.167,10.167,0,0,1-2.369-7.164,31.5,31.5,0,0,1,.4-4.9,34.642,34.642,0,0,1,1.172-4.961,29.141,29.141,0,0,1,1.9-4.619,18.882,18.882,0,0,1,2.617-3.849,12.232,12.232,0,0,1,3.3-2.652,8.3,8.3,0,0,1,3.99-.988,3.712,3.712,0,0,1,2.536.855,5.432,5.432,0,0,1,1.428,2.04,9.729,9.729,0,0,1,.65,2.566c.09.787.141,1.523.154,2.19a12.992,12.992,0,0,0,2.613-.3,7.489,7.489,0,0,0,2.271-.881,4.516,4.516,0,0,0,1.467-1.39,3.421,3.421,0,0,0,.518-1.878,5.047,5.047,0,0,0-.607-2.451A5.166,5.166,0,0,0,98.129,276a10.46,10.46,0,0,0-3.182-1.227,20.586,20.586,0,0,0-4.542-.453Zm28.663,38.346a5.376,5.376,0,0,1-3.327-.949,3.25,3.25,0,0,1-1.253-2.767,14.119,14.119,0,0,1,.068-1.424c.047-.462.128-1,.252-1.608h-.321a32.862,32.862,0,0,1-1.711,2.883,9.765,9.765,0,0,1-1.9,2.138,7.6,7.6,0,0,1-2.335,1.283,9.225,9.225,0,0,1-2.994.428,6.235,6.235,0,0,1-2.917-.65,5.885,5.885,0,0,1-2.087-1.788,8.126,8.126,0,0,1-1.253-2.7,12.92,12.92,0,0,1-.428-3.387,18.39,18.39,0,0,1,.428-3.819,20.336,20.336,0,0,1,1.283-3.93,20.7,20.7,0,0,1,2.083-3.691,15.4,15.4,0,0,1,2.874-3.075,13.571,13.571,0,0,1,3.635-2.108,12.321,12.321,0,0,1,6.231-.637,17.966,17.966,0,0,1,1.813.376q.855.231,1.629.513a9.121,9.121,0,0,1,1.283.582l2.463-1.116h2.485l-3.1,14.575q-.09.385-.231,1.026t-.261,1.356c-.081.479-.154.941-.218,1.394a8.552,8.552,0,0,0-.09,1.125,2.75,2.75,0,0,0,.458,1.732,1.45,1.45,0,0,0,1.185.569,2.938,2.938,0,0,0,1.283-.282q.6-.287,1.334-.7l1.026,1.873q-.594.453-1.347.941a11.79,11.79,0,0,1-3.682,1.574,9.837,9.837,0,0,1-2.352.261Zm-13.13-8.481a11.027,11.027,0,0,0,.192,2.258,4.919,4.919,0,0,0,.522,1.471,2.01,2.01,0,0,0,.8.8,2.2,2.2,0,0,0,1.014.24,3.421,3.421,0,0,0,2.138-.89,10.35,10.35,0,0,0,2.053-2.335,19.836,19.836,0,0,0,1.711-3.272,20.123,20.123,0,0,0,1.15-3.691l1.642-7.75a2.7,2.7,0,0,0-1.283-.979,4.674,4.674,0,0,0-1.711-.317,4.615,4.615,0,0,0-2.5.706,7.848,7.848,0,0,0-2.04,1.895,14.113,14.113,0,0,0-1.608,2.69,21.923,21.923,0,0,0-1.163,3.122,23.651,23.651,0,0,0-.7,3.19,20.178,20.178,0,0,0-.218,2.861Zm26.717-12.9a1.377,1.377,0,0,0-.569-1.24,3.567,3.567,0,0,0-1.89-.376h-.855l.428-2.485h10.324l-.979,6.415h.231a27.454,27.454,0,0,1,1.608-2.964,10.1,10.1,0,0,1,1.779-2.138,6.684,6.684,0,0,1,2.2-1.309,8.443,8.443,0,0,1,2.87-.428,6.006,6.006,0,0,1,3.691.932A3.225,3.225,0,0,1,152.7,290.4a4.437,4.437,0,0,1-1.411,3.6,6.109,6.109,0,0,1-4.089,1.159,16.1,16.1,0,0,0-.1-1.9,5.183,5.183,0,0,0-.364-1.458,2.138,2.138,0,0,0-.706-.924,1.848,1.848,0,0,0-1.1-.321,2.386,2.386,0,0,0-1.39.535,7.584,7.584,0,0,0-1.467,1.475,15.763,15.763,0,0,0-1.424,2.224,30.745,30.745,0,0,0-1.334,2.806q-.637,1.523-1.163,3.178t-.89,3.374l-1.779,8.07h-7.04l3.969-18.758c.043-.257.1-.6.171-1.026A7.37,7.37,0,0,0,132.656,291.276Zm31.785,17.851a7.028,7.028,0,0,0,2.164-.329,8.927,8.927,0,0,0,1.9-.855,9.022,9.022,0,0,0,1.574-1.206,9.979,9.979,0,0,0,1.2-1.381,2.566,2.566,0,0,1,.428.877,3.914,3.914,0,0,1,.163,1.129,3.537,3.537,0,0,1-.547,1.779,5.607,5.607,0,0,1-1.676,1.711,9.88,9.88,0,0,1-2.874,1.283,14.738,14.738,0,0,1-4.136.513,13.36,13.36,0,0,1-4.033-.594,9.486,9.486,0,0,1-3.319-1.788,8.37,8.37,0,0,1-2.245-2.994,10.226,10.226,0,0,1-.821-4.251,15.5,15.5,0,0,1,.453-3.622,17.712,17.712,0,0,1,1.356-3.7,18.3,18.3,0,0,1,2.232-3.421,15.4,15.4,0,0,1,3.088-2.861,14.879,14.879,0,0,1,8.686-2.664,8.254,8.254,0,0,1,5.2,1.446,4.846,4.846,0,0,1,1.848,4.046,6.886,6.886,0,0,1-1.048,3.622,10.239,10.239,0,0,1-2.9,3.045,15.157,15.157,0,0,1-4.4,2.083,19.046,19.046,0,0,1-5.56.774h-.855a8.445,8.445,0,0,1-.888-.047,7.472,7.472,0,0,0-.082.924v.855a6.151,6.151,0,0,0,1.283,4.178A4.758,4.758,0,0,0,164.441,309.128Zm1.642-19.6a3.336,3.336,0,0,0-2.164.855,8.673,8.673,0,0,0-1.848,2.224,16.566,16.566,0,0,0-1.411,3.066,20.13,20.13,0,0,0-.855,3.362h.428a10.975,10.975,0,0,0,3.229-.458,8.04,8.04,0,0,0,2.553-1.309,6.278,6.278,0,0,0,1.711-2.04,5.607,5.607,0,0,0,.629-2.669,3.644,3.644,0,0,0-.6-2.232,2.01,2.01,0,0,0-1.668-.8Zm20.007,11a11.089,11.089,0,0,0-2.425.3,6.417,6.417,0,0,0-2.083.89,4.093,4.093,0,0,0-1.33,1.454,4.217,4.217,0,0,0-.47,2.036,5.757,5.757,0,0,0,.778,2.925,6.916,6.916,0,0,0,2.348,2.348,13.443,13.443,0,0,0,4.007,1.6,24.443,24.443,0,0,0,5.68.586,21.315,21.315,0,0,0,5.953-.778,13.258,13.258,0,0,0,4.5-2.241,9.837,9.837,0,0,0,2.844-3.6,11.548,11.548,0,0,0,1-4.9,9.725,9.725,0,0,0-1.86-5.855,17.125,17.125,0,0,0-5.834-4.7q-1.579-.841-3.118-1.753a12.67,12.67,0,0,1-2.254-1.672,6.241,6.241,0,0,1-1.309-7,5.467,5.467,0,0,1,1.424-1.788,5.988,5.988,0,0,1,1.972-1.061,7.22,7.22,0,0,1,2.2-.351,4.7,4.7,0,0,1,2.729.748,5.513,5.513,0,0,1,1.711,1.873,7.934,7.934,0,0,1,.855,2.459,14.46,14.46,0,0,1,.235,2.245,8.511,8.511,0,0,0,4.876-1.168,3.7,3.7,0,0,0,1.518-3.148,3.879,3.879,0,0,0-.676-2.173,5.855,5.855,0,0,0-2.091-1.8,13.2,13.2,0,0,0-3.584-1.24,24.89,24.89,0,0,0-5.094-.462,18.972,18.972,0,0,0-5.633.791,12.72,12.72,0,0,0-4.23,2.177,9.575,9.575,0,0,0-2.664,3.332,9.73,9.73,0,0,0-.928,4.251,12.21,12.21,0,0,0,.518,3.682,9.978,9.978,0,0,0,1.535,2.994,13.37,13.37,0,0,0,2.566,2.566,28.134,28.134,0,0,0,3.6,2.318,33.071,33.071,0,0,1,3.293,2.014,10.773,10.773,0,0,1,2.049,1.839,5.436,5.436,0,0,1,1.052,1.916,7.672,7.672,0,0,1,.282,2.138,5.666,5.666,0,0,1-.453,2.25,5.252,5.252,0,0,1-1.317,1.839,6.3,6.3,0,0,1-2.074,1.223,8.011,8.011,0,0,1-2.767.428,7.3,7.3,0,0,1-2.964-.595,6.129,6.129,0,0,1-2.339-1.835,8.917,8.917,0,0,1-1.5-3.066,15.278,15.278,0,0,1-.526-4.033Zm24.989,2.331a16.963,16.963,0,0,1,.428-3.627,17.815,17.815,0,0,1,1.24-3.669,17.534,17.534,0,0,1,2.087-3.421,14.053,14.053,0,0,1,2.951-2.814,14.246,14.246,0,0,1,3.849-1.916,15.3,15.3,0,0,1,4.777-.706,12.587,12.587,0,0,1,3.785.556,8.045,8.045,0,0,1,5.2,4.786,11.548,11.548,0,0,1,.761,4.478,17.217,17.217,0,0,1-.389,3.537,17.624,17.624,0,0,1-3.25,7.04,14,14,0,0,1-6.757,4.82,14.781,14.781,0,0,1-4.786.74,12.685,12.685,0,0,1-4.012-.6,8.036,8.036,0,0,1-5.132-4.888A11.689,11.689,0,0,1,211.079,302.858Zm10.735,6.449a3.8,3.8,0,0,0,2.267-.719,7.472,7.472,0,0,0,1.826-1.89,13.258,13.258,0,0,0,1.4-2.677,22.617,22.617,0,0,0,.971-3.1,29.716,29.716,0,0,0,.569-3.135,22.243,22.243,0,0,0,.2-2.767,6.5,6.5,0,0,0-.945-3.965,3.109,3.109,0,0,0-2.566-1.206,3.789,3.789,0,0,0-2.19.684,7.271,7.271,0,0,0-1.813,1.822,13.522,13.522,0,0,0-1.424,2.609,23.523,23.523,0,0,0-1.035,3.045,24.031,24.031,0,0,0-.629,3.135,22.071,22.071,0,0,0-.205,2.861,6.74,6.74,0,0,0,.958,4.08,3.165,3.165,0,0,0,2.622,1.223Zm32.482-1.116a3.957,3.957,0,0,1,.021-.479c.021-.184.034-.372.056-.569s.047-.385.068-.56a4.109,4.109,0,0,1,.081-.428h-.406q-1.026,1.458-2.019,2.643a13.113,13.113,0,0,1-2.108,2.04,8.874,8.874,0,0,1-2.416,1.322,8.717,8.717,0,0,1-2.964.466,6.706,6.706,0,0,1-2.532-.428,4.123,4.123,0,0,1-2.532-2.78,7.069,7.069,0,0,1-.274-1.972,13.3,13.3,0,0,1,.274-2.566q.274-1.39.526-2.566l1.685-8.229c.12-.637.218-1.215.3-1.711a8.891,8.891,0,0,0,.115-1.163,1.259,1.259,0,0,0-.569-1.232,4.4,4.4,0,0,0-1.89-.3h-.855l.428-2.485h11.214l-3.079,13.972c-.094.368-.184.774-.274,1.232s-.175.911-.248,1.369-.141.89-.192,1.283a8.524,8.524,0,0,0-.081,1.048,2.746,2.746,0,0,0,.428,1.629,1.806,1.806,0,0,0,1.574.6,3.28,3.28,0,0,0,2.108-.924,11.732,11.732,0,0,0,2.074-2.391,19.756,19.756,0,0,0,1.766-3.285,21.533,21.533,0,0,0,1.185-3.567l2.485-10.987h6.95l-3.169,15.183q-.3,1.283-.479,2.382a12.744,12.744,0,0,0-.184,2.087,2.523,2.523,0,0,0,.428,1.574,1.446,1.446,0,0,0,1.219.547,3.17,3.17,0,0,0,1.334-.274,10.4,10.4,0,0,0,1.4-.8l1.142,1.574a15.4,15.4,0,0,1-1.283,1.176,9.005,9.005,0,0,1-1.587,1.035,9.206,9.206,0,0,1-1.946.731,9.488,9.488,0,0,1-2.348.274,8.1,8.1,0,0,1-2.566-.355,4.5,4.5,0,0,1-1.677-.958,3.451,3.451,0,0,1-.911-1.416,5.406,5.406,0,0,1-.269-1.758Zm18.425-16.915a1.373,1.373,0,0,0-.569-1.24,3.567,3.567,0,0,0-1.89-.376h-.855l.428-2.485h10.324l-.979,6.415h.227a27.914,27.914,0,0,1,1.608-2.964,10.149,10.149,0,0,1,1.779-2.138,6.7,6.7,0,0,1,2.2-1.309,8.452,8.452,0,0,1,2.874-.428,6.006,6.006,0,0,1,3.691.932,3.225,3.225,0,0,1,1.21,2.711,4.436,4.436,0,0,1-1.411,3.6,6.227,6.227,0,0,1-4.1,1.185,16.14,16.14,0,0,0-.1-1.9,5.226,5.226,0,0,0-.364-1.458,2.164,2.164,0,0,0-.723-.971,1.847,1.847,0,0,0-1.1-.321,2.387,2.387,0,0,0-1.39.535,7.568,7.568,0,0,0-1.458,1.471,15.942,15.942,0,0,0-1.424,2.224q-.693,1.283-1.334,2.806t-1.163,3.178q-.522,1.668-.89,3.374l-1.779,8.07h-7.04l3.965-18.758c.043-.257.1-.6.171-1.026a7.239,7.239,0,0,0,.1-1.125Zm31.888,17.851a7.019,7.019,0,0,0,2.224-.329,7.237,7.237,0,0,0,1.788-.855,7.853,7.853,0,0,0,1.411-1.232,12.747,12.747,0,0,0,1.095-1.39,2.138,2.138,0,0,1,.5.808,3.469,3.469,0,0,1,.205,1.245,3.768,3.768,0,0,1-.535,1.86,5.2,5.2,0,0,1-1.664,1.711,9.836,9.836,0,0,1-2.857,1.253,15.327,15.327,0,0,1-4.127.492,13.2,13.2,0,0,1-4-.594,9.2,9.2,0,0,1-3.28-1.8,8.609,8.609,0,0,1-2.224-2.994,10.1,10.1,0,0,1-.821-4.238,16.068,16.068,0,0,1,.428-3.614,17.75,17.75,0,0,1,1.283-3.691,18.114,18.114,0,0,1,2.138-3.443,14.945,14.945,0,0,1,2.994-2.861,14.687,14.687,0,0,1,3.849-1.959,14.242,14.242,0,0,1,4.649-.727,12.306,12.306,0,0,1,3.34.4,7.074,7.074,0,0,1,2.3,1.069,4.277,4.277,0,0,1,1.334,1.574,4.354,4.354,0,0,1,.428,1.9,3.5,3.5,0,0,1-.308,1.424,3.4,3.4,0,0,1-.992,1.253,5.315,5.315,0,0,1-1.766.9,8.823,8.823,0,0,1-2.634.342,12.121,12.121,0,0,0-.218-2.335,7.183,7.183,0,0,0-.65-1.937,3.819,3.819,0,0,0-1.061-1.309,2.344,2.344,0,0,0-1.471-.479,3.037,3.037,0,0,0-1.882.671,7.212,7.212,0,0,0-1.6,1.779,13.461,13.461,0,0,0-1.283,2.528,26.362,26.362,0,0,0-.958,2.942,25.336,25.336,0,0,0-.6,2.994,19.241,19.241,0,0,0-.205,2.677,6.857,6.857,0,0,0,1.283,4.431A4.594,4.594,0,0,0,304.609,309.128Zm23.274,0a7.033,7.033,0,0,0,2.164-.329,8.886,8.886,0,0,0,1.9-.855,9.063,9.063,0,0,0,1.57-1.206,9.922,9.922,0,0,0,1.2-1.381,2.566,2.566,0,0,1,.428.877,3.956,3.956,0,0,1,.163,1.129,3.533,3.533,0,0,1-.547,1.779,5.56,5.56,0,0,1-1.676,1.711,9.871,9.871,0,0,1-2.87,1.283,14.732,14.732,0,0,1-4.136.513,13.364,13.364,0,0,1-4.033-.594,9.5,9.5,0,0,1-3.319-1.788,8.379,8.379,0,0,1-2.245-2.994,10.265,10.265,0,0,1-.821-4.251,15.547,15.547,0,0,1,.47-3.618,17.509,17.509,0,0,1,1.36-3.7,18.22,18.22,0,0,1,2.232-3.421,15.365,15.365,0,0,1,3.088-2.861,14.88,14.88,0,0,1,8.682-2.664,8.262,8.262,0,0,1,5.2,1.446,4.85,4.85,0,0,1,1.848,4.046,6.915,6.915,0,0,1-1.048,3.622,10.265,10.265,0,0,1-2.9,3.045,15.129,15.129,0,0,1-4.4,2.083,19.054,19.054,0,0,1-5.56.774h-.855a8.458,8.458,0,0,1-.888-.047,7.511,7.511,0,0,0-.079.924v.855a6.152,6.152,0,0,0,1.283,4.178,4.708,4.708,0,0,0,3.781,1.45Zm1.642-19.6a3.345,3.345,0,0,0-2.168.855,8.654,8.654,0,0,0-1.843,2.224,16.434,16.434,0,0,0-1.411,3.066,20.291,20.291,0,0,0-.855,3.362h.428a10.956,10.956,0,0,0,3.225-.458,8.044,8.044,0,0,0,2.6-1.309,6.287,6.287,0,0,0,1.732-2.04,5.641,5.641,0,0,0,.594-2.664,3.636,3.636,0,0,0-.6-2.233,2.006,2.006,0,0,0-1.7-.8Zm11.085-1.108a2.78,2.78,0,0,1,.612-.885,2.844,2.844,0,0,1,4.572.885,2.7,2.7,0,0,1,.227,1.1,2.758,2.758,0,0,1-.227,1.121,2.844,2.844,0,0,1-.607.89,2.728,2.728,0,0,1-.89.59,2.929,2.929,0,0,1-2.177,0,2.754,2.754,0,0,1-.9-.59,2.81,2.81,0,0,1-.612-.89,2.767,2.767,0,0,1-.222-1.12A2.7,2.7,0,0,1,340.611,288.415Zm.462,2.057a2.33,2.33,0,0,0,.488.761,2.254,2.254,0,0,0,.736.5,2.279,2.279,0,0,0,.919.184,2.232,2.232,0,0,0,.907-.184,2.267,2.267,0,0,0,.731-.5,2.33,2.33,0,0,0,.488-.761,2.537,2.537,0,0,0,.175-.954,2.469,2.469,0,0,0-.175-.937,2.271,2.271,0,0,0-1.215-1.253,2.232,2.232,0,0,0-.907-.184,2.271,2.271,0,0,0-2.138,1.437,2.468,2.468,0,0,0-.175.937,2.536,2.536,0,0,0,.167.954Zm2.31-2.566a1.343,1.343,0,0,1,.855.231.856.856,0,0,1,.282.706.8.8,0,0,1-.248.646,1.112,1.112,0,0,1-.616.244l.937,1.446h-.535l-.89-1.407h-.522v1.407h-.509v-3.272h1.283Zm-.227,1.454h.325a.83.83,0,0,0,.274-.064.428.428,0,0,0,.193-.163.556.556,0,0,0,.073-.3.471.471,0,0,0-.064-.261.428.428,0,0,0-.163-.15.719.719,0,0,0-.231-.073,1.832,1.832,0,0,0-.257,0h-.659v1.039h.53Z" transform="translate(154.615 8.449)" fill="#919191"/>
    </g>
  </g>
</svg>
