<svg xmlns="http://www.w3.org/2000/svg" width="300" height="120" viewBox="0 0 300 120">
  <g id="client-2" transform="translate(-372 -87)">
    <rect id="Rectangle_2" data-name="Rectangle 2" width="300" height="120" transform="translate(372 87)" fill="none"/>
    <g id="wellmed-logo" transform="translate(387 122)">
      <g id="Group_2" data-name="Group 2" transform="translate(0 0)">
        <path id="Path_5" data-name="Path 5" d="M13.059,31.914a15.254,15.254,0,0,1,30.051-5.256,14.914,14.914,0,0,1-.162,6.035,17.78,17.78,0,0,0,2.045-11.928,18.14,18.14,0,0,0-35.737,6.25,17.887,17.887,0,0,0,6.036,10.515,14.923,14.923,0,0,1-2.232-5.616" transform="translate(-3.279 -2.153)" fill="#919191"/>
        <path id="Path_6" data-name="Path 6" d="M1.974,12.046A20.782,20.782,0,0,0,12.144,39.756c.256.117.513.226.77.335A19.254,19.254,0,0,1,4.678,15.033a19.557,19.557,0,0,1,25.87-9.338A19.311,19.311,0,0,1,41.74,24.454,20.814,20.814,0,0,0,29.913,1.959,21.1,21.1,0,0,0,1.974,12.046" transform="translate(0 0)" fill="#919191"/>
        <path id="Path_7" data-name="Path 7" d="M52.473,29.194A15.255,15.255,0,0,1,22.42,34.449a14.927,14.927,0,0,1,.161-6.035,17.782,17.782,0,0,0-2.043,11.928,18.139,18.139,0,0,0,35.734-6.249,17.867,17.867,0,0,0-6.034-10.515,14.994,14.994,0,0,1,2.235,5.617" transform="translate(-7.402 -8.614)" fill="#919191"/>
        <path id="Path_8" data-name="Path 8" d="M60.238,44.2A20.782,20.782,0,0,0,50.068,16.486c-.254-.118-.511-.226-.77-.332a19.248,19.248,0,0,1,8.236,25.055,19.554,19.554,0,0,1-25.868,9.338A19.306,19.306,0,0,1,20.473,31.788,20.82,20.82,0,0,0,32.3,54.285,21.1,21.1,0,0,0,60.238,44.2" transform="translate(-7.365 -5.902)" fill="#919191"/>
      </g>
      <g id="Group_5" data-name="Group 5" transform="translate(61.66 11.352)">
        <g id="Group_3" data-name="Group 3">
          <path id="Path_9" data-name="Path 9" d="M107.627,17.887v.9c-2.166,0-2.979.625-2.979,2.506,0,2.058,1.173,4.3,2.3,7.026L111.689,40l5.5-15.084-1.444-3.672c-.857-2.1-1.4-2.415-3.429-2.459v-.9h11.192v.9c-2.843,0-3.7.894-3.7,2.057,0,1.792,2.752,7.655,6.588,19.471h.09c1.4-3.626,6.409-15.89,6.409-19.247,0-1.7-1.082-2.059-3.339-2.281v-.9h9.478v.9c-1.579.089-2.8.446-3.836,3.132l-9.7,24.708h-.633c-1.4-5.1-5.009-13.339-6.816-19.381h-.087C115.7,33.509,113,40.223,110.694,46.623h-.452l-9.476-24.215c-1.083-2.819-1.76-3.536-3.61-3.625v-.9h10.471" transform="translate(-97.156 -17.887)" fill="#919191"/>
          <path id="Path_10" data-name="Path 10" d="M161.621,48.242c3.084,0,3.5-.522,3.536-3.357.076-4.85.15-10.072.15-15.442,0-2.836-.452-3.357-3.311-3.357V25.34h18.128l.79,4.252h-.6c-1.731-2.127-2.783-3.356-6.318-3.356H170.76c-1.88,0-2.218.185-2.218,1.491v8.132h3.872c3.234,0,3.535-.485,4.1-3.244h.828v8.131h-.828c-.413-2.91-1.054-3.619-3.762-3.619h-4.21v9.4c0,1.267.564,1.564,2.406,1.564h4.966c3.572,0,4.285-.669,6.691-4.661h.715c-.376.969-.977,4.14-1.277,5.556H161.621v-.744" transform="translate(-120.708 -20.61)" fill="#919191"/>
          <path id="Path_11" data-name="Path 11" d="M220.171,43.243l-1.2,5.968c-1.278-.073-2.557-.147-3.8-.187s-2.48-.038-3.648-.038H198.36v-.744c3.27,0,3.724-.522,3.724-3.357V29.443c0-2.836-.454-3.357-3.121-3.357V25.34h10.043v.746c-3.237,0-3.689.521-3.689,3.357V44.886c0,2.871.265,3.207,2.446,3.207h2.933c3.121,0,6.431-.894,8.614-4.849h.863" transform="translate(-134.13 -20.61)" fill="#919191"/>
          <path id="Path_12" data-name="Path 12" d="M257.5,43.243l-1.2,5.968c-1.278-.073-2.557-.147-3.8-.187s-2.48-.038-3.647-.038H235.688v-.744c3.274,0,3.725-.522,3.725-3.357V29.443c0-2.836-.451-3.357-3.12-3.357V25.34h10.039v.746c-3.234,0-3.683.521-3.683,3.357V44.886c0,2.871.262,3.207,2.444,3.207h2.932c3.122,0,6.432-.894,8.612-4.849h.864" transform="translate(-147.768 -20.61)" fill="#919191"/>
          <path id="Path_13" data-name="Path 13" d="M296.035,46.087c3.116-.171,3.851-.684,3.809-2.488-.175-6.434-.175-13.04-.433-19.344h-.087c-3.46,7.421-7.351,15.14-10.25,22.262h-.6c-.777-1.673-1.946-4.979-3.333-7.723-1.427-2.83-4.279-9.135-6.834-15.055h-.086c-.042,6.992-.346,13.555-.346,17.459,0,3.475.777,4.889,3.936,4.889v.857h-9v-.857c2.465-.428,3.375-1.029,3.633-4.5.433-5.489.647-13.855.647-16.085,0-4.375-.6-4.718-3.891-4.889v-.86h7.139l7.7,17.331c.6,1.371,1.253,2.529,1.816,4.162l10.422-21.493h6.661v.86c-3.416.214-4.153,1.028-4.153,4.331,0,1.673.3,11.11.433,18.874.045,1.718,1.039,2.1,3.72,2.273v.857h-10.9v-.857" transform="translate(-161.331 -18.567)" fill="#919191"/>
          <path id="Path_14" data-name="Path 14" d="M331.346,48.242c3.082,0,3.5-.522,3.533-3.357.077-4.85.15-10.072.15-15.442,0-2.836-.447-3.357-3.307-3.357V25.34h18.127l.791,4.252h-.6c-1.73-2.127-2.783-3.356-6.317-3.356h-3.233c-1.883,0-2.22.185-2.22,1.491v8.132h3.872c3.234,0,3.535-.485,4.1-3.244h.826v8.131h-.826c-.414-2.91-1.055-3.619-3.762-3.619h-4.211v9.4c0,1.267.564,1.564,2.406,1.564h4.966c3.571,0,4.285-.669,6.694-4.661h.713c-.376.969-.977,4.14-1.277,5.556H331.346v-.744" transform="translate(-182.716 -20.61)" fill="#919191"/>
          <path id="Path_15" data-name="Path 15" d="M376.251,45.407c0,1.792.793,2.836,4.517,2.836,6.616,0,10.83-3.954,10.83-10.594,0-7.123-4.59-11.563-11.735-11.563-2.819,0-3.612.484-3.612,3.357V45.407m-6.805,2.836c3.121,0,3.57-.522,3.57-3.357V29.443c0-2.836-.449-3.357-2.707-3.357V25.34h9.817c5.83,0,15.233,3.059,15.233,12.234,0,7.385-6.356,11.413-12.826,11.413H369.445v-.744Z" transform="translate(-196.636 -20.61)" fill="#919191"/>
        </g>
        <g id="Group_4" data-name="Group 4" transform="translate(199.973 4.488)">
          <path id="Path_16" data-name="Path 16" d="M419.282,31.782h-.617l-1.2-1.942h-.947v1.942h-.518V27.569h1.843a1.741,1.741,0,0,1,1.165.3,1.047,1.047,0,0,1,.328.817,1.281,1.281,0,0,1-.1.528.894.894,0,0,1-.279.353,1.209,1.209,0,0,1-.424.2,2.36,2.36,0,0,1-.522.075l1.274,1.942ZM417.3,29.431h.478a1.869,1.869,0,0,0,.482-.059.748.748,0,0,0,.369-.219.689.689,0,0,0,.144-.478.709.709,0,0,0-.094-.393.623.623,0,0,0-.244-.219,1.049,1.049,0,0,0-.338-.1,2.993,2.993,0,0,0-.378-.025h-1.206v1.494Z" transform="translate(-413.615 -25.913)" fill="#919191"/>
          <path id="Path_17" data-name="Path 17" d="M419.8,28.736a3.776,3.776,0,1,1-3.776-3.776A3.776,3.776,0,0,1,419.8,28.736Zm-3.776-3.278a3.278,3.278,0,1,0,3.277,3.278A3.278,3.278,0,0,0,416.023,25.458Z" transform="translate(-412.246 -24.96)" fill="#919191"/>
        </g>
      </g>
    </g>
  </g>
</svg>
