<svg xmlns="http://www.w3.org/2000/svg" width="300" height="120" viewBox="0 0 300 120">
  <g id="client-3" transform="translate(-60 -233)">
    <rect id="Rectangle_4" data-name="Rectangle 4" width="300" height="120" transform="translate(60 233)" fill="none"/>
    <g id="sentara-seeklogo.com" transform="translate(76.999 270)">
      <path id="Path_19" data-name="Path 19" d="M35.394,26.478a37.853,37.853,0,0,1-6.556.245C14.682,26.237,6.32,20.211,5.991,14.244,5.546,6.163,20.127,0,38.159,0,50.742,0,60.621,2.664,67.2,7.5a.757.757,0,0,1-.73,1.324C58.1,6.159,52.383,4.683,40.454,5.609,25.829,6.745,13.711,16.852,35.262,22.06c2.921.706,2.6,3.964.132,4.418Zm7.2-11.5c9.955,2.785,15.661,6.612,15.652,10.689C58.221,38.138,22.815,42.291,1.068,35.7a.807.807,0,0,0-.654,1.469C25.893,53.915,81.076,46.3,81.987,27.83c.405-8.193-16.054-17.506-35.578-17.506a21.858,21.858,0,0,0-4.125.321c-2.107.453-2.829,3.455.317,4.337Z" fill="#919191"/>
      <path id="Path_20" data-name="Path 20" d="M270.578,34.253a6.258,6.258,0,0,1,1.4,4.213,7.592,7.592,0,0,1-1.485,4.622,9.362,9.362,0,0,1-4.129,3.074,16.354,16.354,0,0,1-6.171,1.075,15.7,15.7,0,0,1-8.274-2.086,12.58,12.58,0,0,1-5.1-5.7l5.333-1.89a8.336,8.336,0,0,0,3.074,3.463,9.5,9.5,0,0,0,5.224,1.312,8.384,8.384,0,0,0,2.708-.409,4.165,4.165,0,0,0,1.87-1.184,2.615,2.615,0,0,0,.666-1.761,2.351,2.351,0,0,0-1.721-2.215,29.5,29.5,0,0,0-5.417-1.4,32.141,32.141,0,0,1-5.565-1.677,9.219,9.219,0,0,1-3.72-2.624,6.321,6.321,0,0,1-1.332-4.129,6.766,6.766,0,0,1,1.593-4.43,10.787,10.787,0,0,1,4.277-3.053,15.207,15.207,0,0,1,5.91-1.119,15.479,15.479,0,0,1,5.461.9,12.11,12.11,0,0,1,4.149,2.56,12.562,12.562,0,0,1,2.773,3.892l-5.244,1.85a7.861,7.861,0,0,0-2.925-3.182,8.39,8.39,0,0,0-4.43-1.119,7.82,7.82,0,0,0-2.6.429,4.9,4.9,0,0,0-1.934,1.16,2.344,2.344,0,0,0-.71,1.677,1.871,1.871,0,0,0,.69,1.5,5.6,5.6,0,0,0,2.215,1.011q1.523.409,3.932.923a30.9,30.9,0,0,1,5.633,1.657,9.951,9.951,0,0,1,3.848,2.644Zm49.971-5.633a7.958,7.958,0,0,0-2.837-3.009,7.673,7.673,0,0,0-4.129-1.119,7.941,7.941,0,0,0-3.2.646,9.333,9.333,0,0,0-2.644,1.721,10.738,10.738,0,0,0-1.5,1.709V25.141H300.47V46.6H306.4V31.826a6.84,6.84,0,0,1,.646-.686,7.4,7.4,0,0,1,2.086-1.356,5.993,5.993,0,0,1,2.431-.518,4.074,4.074,0,0,1,2.127.538,3.815,3.815,0,0,1,1.44,1.461,4.2,4.2,0,0,1,.518,2.086V46.592h5.934v-13.8a8.582,8.582,0,0,0-1.031-4.169Zm20.833,13.337c-.393.1-.863.185-1.42.269a13.7,13.7,0,0,1-2.062.152,4.323,4.323,0,0,1-2.925-.839,2.914,2.914,0,0,1-.947-2.3V29.783h7.351V25.141h-7.351V19.9h-5.89v5.244h-3.527v4.642h3.527V40.577a5.972,5.972,0,0,0,2.171,4.879q2.173,1.782,6.384,1.786a19.1,19.1,0,0,0,2.688-.193,12.179,12.179,0,0,0,2-.429V41.961Zm63.32-9.168v13.8h-5.846V43.763c-.189.245-.385.49-.6.722a8.7,8.7,0,0,1-2.861,2.022,9.025,9.025,0,0,1-3.675.73,7.384,7.384,0,0,1-5.008-1.657,5.3,5.3,0,0,1-1.914-4.193,5.465,5.465,0,0,1,1.075-3.4,7.5,7.5,0,0,1,2.989-2.279,16.054,16.054,0,0,1,4.406-1.2l5.589-.734V32.484a3.233,3.233,0,0,0-1.075-2.492,3.978,3.978,0,0,0-2.8-.991,4.727,4.727,0,0,0-2.989.967A6.661,6.661,0,0,0,390.08,32.4l-4.614-1.316a10.931,10.931,0,0,1,2.271-3.607,9.465,9.465,0,0,1,3.374-2.215,12.031,12.031,0,0,1,4.43-.774,9.836,9.836,0,0,1,6.709,2.151,7.744,7.744,0,0,1,2.452,6.147Zm-5.846,4.506-4,.481a7.192,7.192,0,0,0-2.817.9,2.187,2.187,0,0,0-1.14,1.978,1.961,1.961,0,0,0,.859,1.633,3.71,3.71,0,0,0,2.279.646,5.217,5.217,0,0,0,2.536-.622,6.53,6.53,0,0,0,2.022-1.7c.092-.116.173-.237.257-.361V37.295Zm-53.787-6.364a10.883,10.883,0,0,1,2.211-3.451,9.464,9.464,0,0,1,3.374-2.215,12.031,12.031,0,0,1,4.43-.774,9.836,9.836,0,0,1,6.709,2.151,7.743,7.743,0,0,1,2.452,6.147v13.8H358.4V43.763c-.189.245-.385.49-.6.722a8.7,8.7,0,0,1-2.861,2.022,9.025,9.025,0,0,1-3.675.73,7.384,7.384,0,0,1-5.008-1.657,5.3,5.3,0,0,1-1.914-4.193,5.465,5.465,0,0,1,1.075-3.4A7.5,7.5,0,0,1,348.4,35.71a16.054,16.054,0,0,1,4.406-1.2l5.589-.734V32.484a3.233,3.233,0,0,0-1.075-2.492,3.978,3.978,0,0,0-2.8-.991,4.727,4.727,0,0,0-2.989.967,6.66,6.66,0,0,0-1.914,2.428l-4.554-1.469m13.321,6.364-4,.481a7.192,7.192,0,0,0-2.817.9,2.187,2.187,0,0,0-1.14,1.978,1.961,1.961,0,0,0,.859,1.633,3.71,3.71,0,0,0,2.279.646,5.217,5.217,0,0,0,2.536-.622,6.53,6.53,0,0,0,2.022-1.7c.092-.116.173-.237.257-.361V37.291ZM383,24.86a5.3,5.3,0,0,0-1.055-.265,8.189,8.189,0,0,0-1.312-.108,4.748,4.748,0,0,0-2.881,1.031,8.506,8.506,0,0,0-2.3,2.664,9.337,9.337,0,0,0-.883,2.1V25.129h-5.718V46.583h5.974V36.1a9.363,9.363,0,0,1,.819-3.118,4.936,4.936,0,0,1,1.89-2.127,5.751,5.751,0,0,1,3.1-.774,10.5,10.5,0,0,1,1.224.084,6.72,6.72,0,0,1,1.14.217V24.86ZM295.988,41.239a9.058,9.058,0,0,1-3.8,4.341,11.67,11.67,0,0,1-6.171,1.657,11.9,11.9,0,0,1-5.934-1.44,10.864,10.864,0,0,1-4.149-3.956,10.661,10.661,0,0,1-1.525-5.654,11.813,11.813,0,0,1,1.525-6,11.246,11.246,0,0,1,4.129-4.169,12.123,12.123,0,0,1,11.243-.277,9.605,9.605,0,0,1,3.74,3.439,9.247,9.247,0,0,1,1.376,5.032v2.881H280.452a7.36,7.36,0,0,0,.706,2.407,6.06,6.06,0,0,0,2.127,2.428,5.828,5.828,0,0,0,6.063.064,5.365,5.365,0,0,0,2.086-2.363l4.55,1.613Zm-15.331-7.676h9.983a5.7,5.7,0,0,0-.558-2.235,4.615,4.615,0,0,0-1.657-1.85,4.538,4.538,0,0,0-2.492-.686,4.716,4.716,0,0,0-2.881.923,6.184,6.184,0,0,0-1.958,2.536A7.63,7.63,0,0,0,280.657,33.563ZM410.31,30.59a3.19,3.19,0,0,1-3.3-3.037,3.22,3.22,0,0,1,3.3-3.061,3.057,3.057,0,1,1,0,6.1Zm0-.518a2.528,2.528,0,1,0,0-5.048,2.641,2.641,0,0,0-2.708,2.532A2.61,2.61,0,0,0,410.31,30.072Zm-1.44-4.265h1.5c.875,0,1.545.494,1.545,1.152a1.093,1.093,0,0,1-.582.923l.77,1.252H410.98l-.518-.987h-.606v.987h-.987V25.807Zm.987.8v.758h.506c.3,0,.53-.177.53-.393,0-.2-.229-.365-.518-.365h-.518Z" transform="translate(-147.784 -10.981)" fill="#919191"/>
    </g>
  </g>
</svg>
