<svg xmlns="http://www.w3.org/2000/svg" width="300" height="120" viewBox="0 0 300 120">
  <g id="client-4" transform="translate(-372 -233)">
    <rect id="Rectangle_3" data-name="Rectangle 3" width="300" height="120" transform="translate(372 233)" fill="none"/>
    <g id="umr-a-unitedhealthcare-company-logo-vector" transform="translate(309 86.6)">
      <g id="Group_6" data-name="Group 6" transform="translate(135 217.582)">
        <path id="Path_21" data-name="Path 21" d="M139.707,340.619,135,352.289c46.521-16.41,145.366-34.947,151.943,5.191,12.477-22.793,1.29-45.361-147.236-16.861" transform="translate(-135 -327.259)" fill="#919191"/>
      </g>
      <path id="Path_22" data-name="Path 22" d="M278.517,207.214c-5.577-6.158-8.672-14.185-10.123-17.022-.258-.516-.58-1.128-.806-1.547,5.158-2.031,9.22-5.706,9.22-11.864a10.4,10.4,0,0,0-4.868-8.995c-2.708-1.741-6.577-2.386-11.993-2.386H220.841l-9.994,25.759c-.258.677-.677.9-.9.9-.419,0-.709-.838-.709-.838-3.611-8.608-7.383-17.119-10.736-25.824H166.647v2.708c4.578.193,6.125,1.1,6.125,3.546v25.34c0,11.509-2.16,17.216-9.253,17.216-6.19,0-9.833-4.642-9.672-15.023V175.845c0-7.544.548-7.318,5.126-7.737V165.4H136.6v2.708c4.868.419,5.416.9,5.416,8.447v23.47c0,8.156,1.805,12.7,5.319,15.894,3.288,3,7.608,4.642,13.089,4.61,4.868-.032,10.155-1.87,13.218-5.223,3.9-4.32,5.094-10.671,5.094-16.668V171.977c0-1.87.645-3.546,3.192-3.74a9.034,9.034,0,0,1,1.58.032c2.45.419,2.869,1.9,2.837,5.545-.1,7.737,0,29.273,0,34.915a5.263,5.263,0,0,1-.774,3.288c-.774.838-2.16,1.128-3.708,1.322l-.193,3.772c5.094-.774,10.091-1.419,14.766-2.031v-3.095c-4.256-.129-4.191-1.354-4.191-3.417,0-.87.032-30.015.032-30.015,0-.226-.032-.548.258-.677a.484.484,0,0,1,.613.161l12.412,32.755c1.225-.161,2.547-.322,3.708-.451l12.154-31.949s.161-.516.58-.548a.6.6,0,0,1,.548.677v26.21c0,3.224-.484,4.159-4.191,4.513v3.288c6.738-.645,12.9-1.064,18.538-1.322v-2.9c-3.159-.387-4.062-1.161-4.062-5.448V174.04c0-3.772.774-4.836,2.579-5.448a12.786,12.786,0,0,1,4.739-.29c2.418.451,3.772,1.128,3.708,6.77v26.049c0,5.416-.58,6.674-3.965,7.06v2.837a194.485,194.485,0,0,1,19.763.226l-.161-3.063c-.484-.032-1.354-.161-1.354-.161-3.192-.484-3.772-2.031-3.772-8.511v-8.382h1.064a3.841,3.841,0,0,1,3.288,2.515,96.965,96.965,0,0,0,7.157,12.9c2.773,4.062,5.545,7.415,15.088,8.06l1.805.032v-4.9a9.326,9.326,0,0,1-4.256-2.515M261.3,186.13a8.628,8.628,0,0,1-4.8,1.161h-2.031V171.88c0-2.773.387-3.353,3.546-3.353,2.934,0,7.673,2.611,7.673,9.253A9.647,9.647,0,0,1,261.3,186.13Z" transform="translate(-1.084)" fill="#919191"/>
      <path id="Path_46" data-name="Path 46" d="M595.132,308.792a1.609,1.609,0,0,0,.838.226.985.985,0,0,0,1.128-1c0-.484-.226-.741-.806-1-.419-.161-.548-.29-.548-.548,0-.193.129-.387.484-.387a.909.909,0,0,1,.516.129l.1.064.032-.1.1-.322.032-.064-.064-.032a1.308,1.308,0,0,0-.709-.161.971.971,0,0,0-1.064.935q0,.629.87.967c.387.161.516.29.516.548,0,.29-.193.451-.548.451a1.089,1.089,0,0,1-.645-.193l-.1-.065-.032.1-.1.355-.032.064.032.032" transform="translate(-311.768 -95.001)" fill="#919191"/>
      <path id="Path_47" data-name="Path 47" d="M605.769,309.188h.484v-.064l-.193-3.159V305.9h-.645l-.032.064-.548,1.515a7.394,7.394,0,0,0-.322,1.064l.064-.065h0l.064.065c-.1-.322-.193-.677-.322-1.064l-.516-1.515-.032-.064h-.645v.064l-.226,3.159v.064h.548v-.064l.065-1.354c.032-.484.064-1.032.064-1.386l-.064.064h0l-.065-.064c.1.355.193.741.355,1.225l.484,1.515.032.064h.419l.032-.064.548-1.515c.161-.419.29-.838.387-1.193l-.064.064h0l-.064-.064c0,.387.032.967.064,1.354l.064,1.386v.065h.064" transform="translate(-317.053 -95.204)" fill="#919191"/>
    </g>
  </g>
</svg>
