<svg xmlns="http://www.w3.org/2000/svg" width="300" height="120" viewBox="0 0 300 120">
  <g id="client-1" transform="translate(-60 -87)">
    <rect id="Rectangle_1" data-name="Rectangle 1" width="300" height="120" transform="translate(60 87)" fill="none"/>
    <g id="Layer_2" data-name="Layer 2" transform="translate(118 120)">
      <g id="Layer_1" data-name="Layer 1">
        <path id="Path_18" data-name="Path 18" d="M136.351,41.1V9.985h9.868l.06,3.715a10.276,10.276,0,0,1,17.123.871,10.8,10.8,0,0,1,9.521-5.052c6.791,0,10.506,5.109,10.506,11.552V41.1H173.387V22.581c0-3.018-1.915-4.819-4.239-4.819s-4.236,1.814-4.236,4.819V41.1H154.87V22.581c0-3.018-1.917-4.819-4.239-4.819s-4.239,1.814-4.239,4.819V41.1Zm-3.368-11.843c0,8.011-6.386,12.539-14.508,12.539s-14.508-4.529-14.508-12.539V9.985h10.1v18.98a4.4,4.4,0,1,0,8.809,0V9.985h10.1ZM101.233,18V9.985H92.942V2.031H82.89V29.952c0,7.721,4.586,11.609,11.959,11.609a17.108,17.108,0,0,0,6.384-1.036V32.572a12.482,12.482,0,0,1-3.819.632c-2.671,0-4.472-1.22-4.472-4.065V18ZM70.18,25.54c0,4.472-3.251,7.772-7.254,7.772a7.433,7.433,0,0,1-7.314-7.772,7.3,7.3,0,1,1,14.568,0ZM55.609,53.171V37.846a14.011,14.011,0,0,0,9.635,3.775c8.418,0,15.027-7.14,15.027-16.081,0-8.881-6.617-16.022-15.027-16.022a13.99,13.99,0,0,0-9.925,4.065l-.057-3.6H45.51V53.171ZM31.81,20.786c0,6.386-4.7,11.14-10.565,11.14s-10.563-4.759-10.563-11.14,4.7-11.14,10.563-11.14S31.81,14.4,31.81,20.781ZM21.245,0a20.786,20.786,0,1,0,0,41.562A20.786,20.786,0,1,0,21.245,0Z" fill="#919191"/>
      </g>
    </g>
  </g>
</svg>
