<?xml version="1.0" encoding="utf-8"?>
<!-- Generator: Adobe Illustrator 27.7.0, SVG Export Plug-In . SVG Version: 6.00 Build 0)  -->
<svg version="1.1" id="Layer_1" xmlns="http://www.w3.org/2000/svg" xmlns:xlink="http://www.w3.org/1999/xlink" x="0px" y="0px"
	 viewBox="0 0 24 24" style="enable-background:new 0 0 24 24;" xml:space="preserve">
<style type="text/css">
	.st0{fill:none;}
	.st1{fill:#838383;}
</style>
<path class="st0" d="M0,0h24v24H0V0z"/>
<path class="st1" d="M17,2c0.6,0,1,0.4,1,1v4h3c0.6,0,1,0.4,1,1v10c0,0.6-0.4,1-1,1h-3v2c0,0.6-0.4,1-1,1H7c-0.6,0-1-0.4-1-1v-2H3
	c-0.6,0-1-0.4-1-1V8c0-0.6,0.4-1,1-1h3V3c0-0.6,0.4-1,1-1H17z M16,17H8v3h8V17z M20,9H4v8h2v-1c0-0.6,0.4-1,1-1h10c0.6,0,1,0.4,1,1
	v1h2V9z M8,10v2H5v-2H8z M16,4H8v3h8V4z"/>
</svg>
